<svg xmlns="http://www.w3.org/2000/svg" width="375" viewBox="0 0 375 375" height="375" version="1.0"><g fill="#FFF"><g><g><path d="M 105.605469 -180.523438 C 102.898438 -180.523438 101.320312 -179.171875 100.640625 -176.464844 L 75.59375 -64.085938 L 50.546875 -176.464844 C 49.871094 -179.171875 48.289062 -180.523438 45.582031 -180.523438 L 15.796875 -180.523438 C 12.863281 -180.523438 11.28125 -178.945312 11.28125 -176.011719 L 11.28125 -4.511719 C 11.28125 -1.578125 12.863281 0 15.796875 0 L 36.554688 0 C 39.488281 0 41.070312 -1.578125 41.070312 -4.511719 L 41.070312 -106.058594 L 42.648438 -106.058594 L 64.988281 -4.0625 C 65.664062 -1.355469 67.246094 0 69.953125 0 L 81.011719 0 C 83.71875 0 85.296875 -1.355469 85.976562 -4.0625 L 108.316406 -106.058594 L 109.894531 -106.058594 L 109.894531 -4.511719 C 109.894531 -1.578125 111.472656 0 114.40625 0 L 135.394531 0 C 138.328125 0 139.90625 -1.578125 139.90625 -4.511719 L 139.90625 -176.011719 C 139.90625 -178.945312 138.328125 -180.523438 135.394531 -180.523438 Z M 105.605469 -180.523438" transform="translate(64.585 225.43)"/></g></g></g><g fill="#FFF"><g><g><path d="M 108.898438 -154.964844 C 108.898438 -177.167969 97.089844 -188.980469 74.882812 -188.980469 L 15.589844 -188.980469 C 13.230469 -188.980469 11.8125 -187.5625 11.8125 -185.199219 L 11.8125 -3.78125 C 11.8125 -1.417969 13.230469 0 15.589844 0 L 40.160156 0 C 42.519531 0 43.9375 -1.417969 43.9375 -3.78125 L 43.9375 -63.308594 L 60.238281 -63.308594 L 76.066406 -3.308594 C 76.539062 -1.179688 77.71875 0 80.082031 0 L 104.648438 0 C 107.246094 0 108.664062 -1.417969 107.957031 -4.253906 L 91.65625 -66.144531 C 102.996094 -71.105469 108.898438 -81.496094 108.898438 -97.324219 Z M 43.9375 -94.492188 L 43.9375 -157.796875 L 67.324219 -157.796875 C 73.464844 -157.796875 76.773438 -154.492188 76.773438 -148.351562 L 76.773438 -103.9375 C 76.773438 -97.796875 73.464844 -94.492188 67.324219 -94.492188 Z M 43.9375 -94.492188" transform="translate(167.02 327.624)"/></g></g></g><g fill="#FFF"><g><g><path d="M -7.28125 14.09375 L -6.359375 14.109375 C -6.328125 14.109375 -6.300781 14.109375 -6.28125 14.109375 L -5.953125 1.4375 C -5.960938 1.050781 -6.09375 0.722656 -6.34375 0.453125 C -6.601562 0.179688 -6.921875 0.0390625 -7.296875 0.03125 L -7.578125 0.015625 L -7.578125 -0.203125 L -0.984375 -0.03125 L -0.984375 0.1875 L -1.265625 0.1875 C -1.785156 0.175781 -2.1875 0.390625 -2.46875 0.828125 C -2.59375 1.035156 -2.671875 1.257812 -2.703125 1.5 L -3.015625 13.5625 C -3.003906 13.9375 -2.867188 14.257812 -2.609375 14.53125 C -2.347656 14.8125 -2.03125 14.957031 -1.65625 14.96875 L -1.375 14.96875 L -1.375 15.1875 L -8.828125 15 C -10.234375 14.96875 -11.414062 14.628906 -12.375 13.984375 C -12.851562 13.671875 -13.226562 13.238281 -13.5 12.6875 C -13.78125 12.132812 -13.910156 11.414062 -13.890625 10.53125 C -13.867188 9.65625 -13.539062 8.820312 -12.90625 8.03125 C -12.28125 7.238281 -11.390625 6.800781 -10.234375 6.71875 C -11.054688 6.414062 -11.773438 5.757812 -12.390625 4.75 C -13.890625 2.195312 -15.007812 0.675781 -15.75 0.1875 C -16.113281 -0.0625 -16.582031 -0.195312 -17.15625 -0.21875 L -17.15625 -0.4375 L -15.015625 -0.390625 C -13.753906 -0.359375 -12.710938 -0.164062 -11.890625 0.1875 C -11.066406 0.539062 -10.425781 1.148438 -9.96875 2.015625 C -9.707031 2.492188 -9.140625 3.75 -8.265625 5.78125 C -7.878906 6.664062 -7.394531 7.160156 -6.8125 7.265625 L -6.828125 7.484375 L -7.5 7.46875 C -8.15625 7.445312 -8.738281 7.625 -9.25 8 C -9.757812 8.382812 -10.113281 9.015625 -10.3125 9.890625 C -10.375 10.191406 -10.40625 10.429688 -10.40625 10.609375 C -10.4375 11.796875 -10.21875 12.660156 -9.75 13.203125 C -9.289062 13.742188 -8.6875 14.03125 -7.9375 14.0625 C -7.789062 14.070312 -7.570312 14.082031 -7.28125 14.09375 Z M -7.28125 14.09375" transform="translate(152.909 309.33)"/></g></g></g><g fill="#FFF"><g><g><path d="M -15.609375 -3.640625 L -15.796875 -3.6875 L -15.75 -3.90625 L -9.03125 -2.234375 L -9.078125 -2.015625 L -9.25 -2.0625 C -9.5625 -2.132812 -9.8125 -2.09375 -10 -1.9375 C -10.195312 -1.789062 -10.316406 -1.628906 -10.359375 -1.453125 C -10.398438 -1.285156 -10.414062 -1.113281 -10.40625 -0.9375 L -10.015625 1.921875 L -5.078125 3.140625 L -3.328125 0.8125 C -3.210938 0.644531 -3.132812 0.476562 -3.09375 0.3125 C -3.050781 0.15625 -3.082031 -0.03125 -3.1875 -0.25 C -3.300781 -0.476562 -3.515625 -0.632812 -3.828125 -0.71875 L -3.984375 -0.765625 L -3.9375 -0.984375 L 0.578125 0.140625 L 0.53125 0.359375 L 0.328125 0.3125 C 0.00390625 0.226562 -0.34375 0.242188 -0.71875 0.359375 C -1.09375 0.472656 -1.425781 0.703125 -1.71875 1.046875 L -9.34375 10.875 C -10.34375 12.101562 -10.921875 12.941406 -11.078125 13.390625 L -11.265625 13.34375 L -14.125 -1.96875 C -14.238281 -2.4375 -14.429688 -2.8125 -14.703125 -3.09375 C -14.972656 -3.375 -15.273438 -3.554688 -15.609375 -3.640625 Z M -5.640625 3.921875 L -9.875 2.875 L -9.109375 8.578125 Z M -5.640625 3.921875" transform="translate(134.196 308.536)"/></g></g></g><g fill="#FFF"><g><g><path d="M -12.734375 10.765625 C -12.253906 10.972656 -11.804688 10.929688 -11.390625 10.640625 C -11.179688 10.492188 -11.023438 10.300781 -10.921875 10.0625 L -5.671875 -1.796875 C -5.253906 -2.734375 -4.628906 -3.460938 -3.796875 -3.984375 C -2.972656 -4.503906 -2.125 -4.765625 -1.25 -4.765625 C -0.382812 -4.765625 0.414062 -4.597656 1.15625 -4.265625 C 1.320312 -4.191406 1.488281 -4.109375 1.65625 -4.015625 L 1.59375 -3.84375 C 0.644531 -3.851562 -0.195312 -3.535156 -0.9375 -2.890625 C -1.675781 -2.253906 -2.269531 -1.429688 -2.71875 -0.421875 L -7.9375 11.375 C -8.144531 11.882812 -8.09375 12.347656 -7.78125 12.765625 C -7.625 12.960938 -7.4375 13.109375 -7.21875 13.203125 L -6.96875 13.328125 L -7.0625 13.53125 L -13.09375 10.859375 L -13 10.65625 Z M -12.734375 10.765625" transform="translate(116.6 303.611)"/></g></g></g><g fill="#FFF"><g><g><path d="M -17.359375 1.578125 C -16.992188 1.023438 -16.535156 0.566406 -15.984375 0.203125 C -14.953125 -0.472656 -13.757812 -0.625 -12.40625 -0.25 C -12.007812 -0.132812 -11.675781 0.015625 -11.40625 0.203125 C -10.550781 0.765625 -9.929688 1.492188 -9.546875 2.390625 L -9.65625 2.5625 C -10.550781 1.9375 -11.476562 1.75 -12.4375 2 C -13.269531 2.207031 -13.972656 2.742188 -14.546875 3.609375 C -15.117188 4.472656 -15.351562 5.28125 -15.25 6.03125 C -15.144531 6.789062 -14.734375 7.40625 -14.015625 7.875 L -12.796875 8.6875 L -5.8125 -1.921875 C -5.601562 -2.242188 -5.539062 -2.585938 -5.625 -2.953125 C -5.707031 -3.328125 -5.90625 -3.617188 -6.21875 -3.828125 L -6.453125 -3.984375 L -6.328125 -4.171875 L -0.828125 -0.546875 L -0.953125 -0.359375 L -1.1875 -0.515625 C -1.5 -0.710938 -1.835938 -0.773438 -2.203125 -0.703125 C -2.566406 -0.628906 -2.863281 -0.441406 -3.09375 -0.140625 L -9.78125 10 C -9.976562 10.300781 -10.023438 10.628906 -9.921875 10.984375 C -9.828125 11.347656 -9.625 11.628906 -9.3125 11.828125 L -9.078125 11.984375 L -9.203125 12.15625 L -15.25 8.171875 C -16.726562 7.191406 -17.632812 6.140625 -17.96875 5.015625 C -18.300781 3.847656 -18.097656 2.703125 -17.359375 1.578125 Z M -17.359375 1.578125" transform="translate(106.407 299.115)"/></g></g></g><g fill="#FFF"><g><g><path d="M -12 6.8125 C -14.09375 6.675781 -16.046875 5.660156 -17.859375 3.765625 C -19.671875 1.867188 -20.59375 -0.125 -20.625 -2.21875 C -20.664062 -4.3125 -19.804688 -6.195312 -18.046875 -7.875 C -16.285156 -9.5625 -14.359375 -10.335938 -12.265625 -10.203125 C -10.179688 -10.066406 -8.234375 -9.050781 -6.421875 -7.15625 C -4.609375 -5.257812 -3.679688 -3.265625 -3.640625 -1.171875 C -3.609375 0.921875 -4.472656 2.804688 -6.234375 4.484375 C -7.992188 6.171875 -9.914062 6.945312 -12 6.8125 Z M -5.90625 -2.59375 C -5.625 -4.101562 -6.007812 -5.410156 -7.0625 -6.515625 C -8.125 -7.628906 -9.421875 -8.078125 -10.953125 -7.859375 C -12.484375 -7.648438 -14.03125 -6.800781 -15.59375 -5.3125 C -17.15625 -3.820312 -18.078125 -2.316406 -18.359375 -0.796875 C -18.640625 0.722656 -18.25 2.035156 -17.1875 3.140625 C -16.132812 4.253906 -14.84375 4.695312 -13.3125 4.46875 C -11.789062 4.25 -10.25 3.394531 -8.6875 1.90625 C -7.125 0.414062 -6.195312 -1.082031 -5.90625 -2.59375 Z M -5.90625 -2.59375" transform="translate(92.45 289.909)"/></g></g></g><g fill="#FFF"><g><g><path d="M -13.328125 3.59375 C -15.316406 2.9375 -16.953125 1.46875 -18.234375 -0.8125 C -19.515625 -3.09375 -19.910156 -5.253906 -19.421875 -7.296875 C -18.941406 -9.335938 -17.640625 -10.953125 -15.515625 -12.140625 C -13.390625 -13.328125 -11.332031 -13.59375 -9.34375 -12.9375 C -7.351562 -12.28125 -5.71875 -10.8125 -4.4375 -8.53125 C -3.15625 -6.25 -2.753906 -4.085938 -3.234375 -2.046875 C -3.722656 -0.00390625 -5.03125 1.609375 -7.15625 2.796875 C -9.28125 3.984375 -11.335938 4.25 -13.328125 3.59375 Z M -5.078125 -3.96875 C -4.421875 -5.363281 -4.46875 -6.734375 -5.21875 -8.078125 C -5.96875 -9.421875 -7.109375 -10.175781 -8.640625 -10.34375 C -10.179688 -10.519531 -11.894531 -10.082031 -13.78125 -9.03125 C -15.664062 -7.976562 -16.929688 -6.75 -17.578125 -5.34375 C -18.234375 -3.945312 -18.1875 -2.578125 -17.4375 -1.234375 C -16.6875 0.109375 -15.546875 0.859375 -14.015625 1.015625 C -12.492188 1.179688 -10.789062 0.738281 -8.90625 -0.3125 C -7.019531 -1.363281 -5.742188 -2.582031 -5.078125 -3.96875 Z M -5.078125 -3.96875" transform="translate(77.878 274.234)"/></g></g></g><g fill="#FFF"><g><g><path d="M -16.234375 -4.515625 L -3.984375 -8.09375 C -3.628906 -8.207031 -3.363281 -8.429688 -3.1875 -8.765625 C -3.007812 -9.097656 -2.972656 -9.445312 -3.078125 -9.8125 L -3.15625 -10.0625 L -2.953125 -10.140625 L -1.109375 -3.796875 L -1.3125 -3.734375 L -1.390625 -4 C -1.492188 -4.351562 -1.707031 -4.617188 -2.03125 -4.796875 C -2.351562 -4.984375 -2.695312 -5.039062 -3.0625 -4.96875 L -15.328125 -1.390625 L -14.5 1.4375 C -14.289062 2.0625 -13.9375 2.503906 -13.4375 2.765625 C -12.945312 3.023438 -12.390625 3.066406 -11.765625 2.890625 L -11.515625 2.8125 L -11.453125 3.03125 L -15.078125 4.09375 C -15.015625 3.4375 -15.132812 2.570312 -15.4375 1.5 L -17.875 -6.890625 C -18 -7.328125 -18.175781 -7.785156 -18.40625 -8.265625 C -18.644531 -8.742188 -18.832031 -9.070312 -18.96875 -9.25 L -15.34375 -10.3125 L -15.28125 -10.09375 L -15.53125 -10.015625 C -16.394531 -9.765625 -16.910156 -9.265625 -17.078125 -8.515625 C -17.160156 -8.148438 -17.148438 -7.75 -17.046875 -7.3125 Z M -16.234375 -4.515625" transform="translate(67.846 255.214)"/></g></g></g><g fill="#FFF"><g><g><path d="M 19.28125 7.1875 L 19.609375 7.328125 L 19.53125 7.53125 L 13.4375 5.171875 L 13.515625 4.984375 L 13.828125 5.109375 C 14.054688 5.191406 14.285156 5.171875 14.515625 5.046875 C 14.742188 4.929688 14.882812 4.765625 14.9375 4.546875 L 16.984375 -3.109375 L 10.65625 1.96875 C 9.820312 2.625 9.273438 3.28125 9.015625 3.9375 L 8.8125 3.859375 L 6.96875 -6.921875 L 3.359375 0.09375 C 3.253906 0.289062 3.25 0.507812 3.34375 0.75 C 3.4375 1 3.597656 1.164062 3.828125 1.25 L 4.125 1.375 L 4.046875 1.5625 L -0.1875 -0.078125 L -0.109375 -0.28125 L 0.21875 -0.140625 C 0.601562 0.00390625 0.976562 0.015625 1.34375 -0.109375 C 1.707031 -0.234375 1.992188 -0.484375 2.203125 -0.859375 L 8.890625 -13.203125 L 9.0625 -13.140625 L 11.359375 -0.375 L 21.390625 -8.390625 L 21.59375 -8.3125 L 18.3125 5.34375 C 18.21875 5.769531 18.265625 6.148438 18.453125 6.484375 C 18.640625 6.816406 18.914062 7.050781 19.28125 7.1875 Z M 19.28125 7.1875" transform="translate(233.38 58.393)"/></g></g></g><g fill="#FFF"><g><g><path d="M 22.78125 0.828125 L 22.5 0.5625 C 22.28125 0.351562 22.023438 0.25 21.734375 0.25 C 21.441406 0.25 21.191406 0.351562 20.984375 0.5625 L 15.1875 6.734375 C 13.96875 8.023438 12.59375 8.664062 11.0625 8.65625 C 9.539062 8.65625 8.070312 7.988281 6.65625 6.65625 C 4.988281 5.09375 4.0625 3.519531 3.875 1.9375 C 3.6875 0.363281 4.210938 -1.082031 5.453125 -2.40625 L 11.234375 -8.546875 C 11.503906 -8.867188 11.570312 -9.234375 11.4375 -9.640625 C 11.375 -9.828125 11.269531 -9.992188 11.125 -10.140625 L 10.875 -10.375 L 11.03125 -10.53125 L 15.578125 -6.25 L 15.421875 -6.09375 L 15.171875 -6.328125 C 14.941406 -6.535156 14.679688 -6.640625 14.390625 -6.640625 C 14.097656 -6.648438 13.84375 -6.554688 13.625 -6.359375 L 7.9375 -0.3125 C 6.882812 0.8125 6.328125 1.957031 6.265625 3.125 C 6.203125 4.300781 6.648438 5.335938 7.609375 6.234375 C 8.566406 7.140625 9.613281 7.546875 10.75 7.453125 C 11.894531 7.367188 12.972656 6.800781 13.984375 5.75 L 19.859375 -0.5 C 20.117188 -0.820312 20.179688 -1.171875 20.046875 -1.546875 C 19.972656 -1.742188 19.863281 -1.914062 19.71875 -2.0625 L 19.46875 -2.296875 L 19.625 -2.453125 L 22.9375 0.671875 Z M 22.78125 0.828125" transform="translate(257.08 68.916)"/></g></g></g><g fill="#FFF"><g><g><path d="M 0.734375 0.984375 C 0.898438 1.316406 1.160156 1.539062 1.515625 1.65625 C 1.867188 1.78125 2.222656 1.769531 2.578125 1.625 L 13.390625 -3.734375 C 13.847656 -3.992188 14.085938 -4.390625 14.109375 -4.921875 C 14.117188 -5.148438 14.070312 -5.375 13.96875 -5.59375 L 13.84375 -5.859375 L 14.046875 -5.953125 L 16.984375 -0.03125 L 16.765625 0.046875 L 16.65625 -0.1875 C 16.425781 -0.65625 16.046875 -0.90625 15.515625 -0.9375 C 15.273438 -0.976562 15.046875 -0.941406 14.828125 -0.828125 L 4.015625 4.53125 C 3.671875 4.695312 3.441406 4.960938 3.328125 5.328125 C 3.222656 5.703125 3.253906 6.054688 3.421875 6.390625 L 3.53125 6.625 L 3.34375 6.734375 L 0.40625 0.8125 L 0.609375 0.71875 Z M 7.5 15.125 L 6.71875 13.53125 C 5.738281 11.550781 5.582031 9.890625 6.25 8.546875 C 8.25 4.660156 9.273438 2.703125 9.328125 2.671875 L 17.734375 4.25 C 17.910156 4.289062 18.050781 4.285156 18.15625 4.234375 C 18.257812 4.179688 18.34375 4.113281 18.40625 4.03125 C 18.550781 3.832031 18.554688 3.601562 18.421875 3.34375 L 18.328125 3.15625 L 18.515625 3.0625 L 20.734375 7.53125 L 20.546875 7.625 L 20.5 7.53125 C 20.070312 6.664062 19.410156 6.117188 18.515625 5.890625 L 12.140625 4.3125 L 7.921875 12.453125 C 7.441406 13.429688 7.367188 14.289062 7.703125 15.03125 Z M 7.5 15.125" transform="translate(273.243 85.602)"/></g></g></g><g fill="#FFF"><g><g><path d="M 16.71875 15.515625 L 16.671875 15.140625 C 16.640625 14.835938 16.515625 14.585938 16.296875 14.390625 C 16.078125 14.203125 15.820312 14.117188 15.53125 14.140625 L 7.109375 15.015625 C 5.335938 15.203125 3.875 14.796875 2.71875 13.796875 C 1.5625 12.796875 0.882812 11.328125 0.6875 9.390625 C 0.445312 7.117188 0.769531 5.320312 1.65625 4 C 2.550781 2.6875 3.898438 1.929688 5.703125 1.734375 L 14.078125 0.859375 C 14.503906 0.796875 14.800781 0.566406 14.96875 0.171875 C 15.039062 -0.00390625 15.066406 -0.191406 15.046875 -0.390625 L 15.015625 -0.734375 L 15.234375 -0.765625 L 15.875 5.453125 L 15.65625 5.484375 L 15.625 5.140625 C 15.59375 4.828125 15.460938 4.570312 15.234375 4.375 C 15.015625 4.175781 14.753906 4.082031 14.453125 4.09375 L 6.203125 4.953125 C 4.671875 5.117188 3.5 5.625 2.6875 6.46875 C 1.875 7.3125 1.535156 8.390625 1.671875 9.703125 C 1.816406 11.015625 2.347656 12.007812 3.265625 12.6875 C 4.179688 13.363281 5.363281 13.628906 6.8125 13.484375 L 15.34375 12.59375 C 15.757812 12.519531 16.046875 12.296875 16.203125 11.921875 C 16.273438 11.734375 16.300781 11.535156 16.28125 11.328125 L 16.234375 11 L 16.453125 10.96875 L 16.9375 15.484375 Z M 16.71875 15.515625" transform="translate(282.198 105.56)"/></g></g></g><g fill="#FFF"><g><g><path d="M -0.046875 1.21875 C -0.140625 1.582031 -0.0859375 1.925781 0.109375 2.25 C 0.304688 2.570312 0.585938 2.785156 0.953125 2.890625 L 12.671875 5.625 C 13.046875 5.6875 13.394531 5.617188 13.71875 5.421875 C 14.039062 5.222656 14.25 4.941406 14.34375 4.578125 L 14.40625 4.28125 L 14.625 4.328125 L 13.125 10.765625 L 12.90625 10.703125 L 12.96875 10.453125 C 13.050781 10.085938 12.988281 9.738281 12.78125 9.40625 C 12.582031 9.070312 12.300781 8.863281 11.9375 8.78125 L -0.421875 5.90625 L -1.0625 8.671875 C -1.300781 9.710938 -1.207031 10.648438 -0.78125 11.484375 C -0.351562 12.316406 0.367188 13.023438 1.390625 13.609375 L 1.34375 13.828125 L -2.765625 11.859375 L -0.203125 0.875 L 0.015625 0.921875 Z M -0.046875 1.21875" transform="translate(283.346 128.842)"/></g></g></g></svg>